<svg viewBox="0 0 24 24" fill="none" xmlns="http://www.w3.org/2000/svg">
<mask id="mask0_5354_284111" style="mask-type:luminance" maskUnits="userSpaceOnUse" x="3" y="3" width="19" height="19">
<path d="M21.2856 3H3V21.0642H21.2856V3Z" fill="white"/>
</mask>
<g mask="url(#mask0_5354_284111)">
<path d="M19.4895 13.3578C18.519 14.331 17.249 14.9483 15.8842 15.11C15.8994 13.7878 15.5247 12.4904 14.8066 11.3798C15.1696 11.4334 15.5404 11.4023 15.8893 11.289C16.2382 11.1757 16.5568 10.9832 16.8188 10.7266C17.7674 9.79958 17.7544 8.25211 16.8171 7.3144L15.1533 5.651L17.8033 3L19.4884 4.68549C21.2856 6.48245 21.7344 9.11707 20.8341 11.3326C20.5261 12.0909 20.0689 12.7796 19.4895 13.3578Z" fill="white"/>
<path d="M9.13251 18.4131L6.48257 21.0641L4.79747 19.3786C3.00074 17.5817 2.55198 14.947 3.45174 12.7315C3.86517 11.7177 4.54224 10.8328 5.41227 10.1687C6.28287 9.50451 7.31502 9.08514 8.40215 8.9541C8.387 10.2763 8.76172 11.5737 9.47917 12.6843C9.11624 12.6308 8.74601 12.6618 8.39654 12.7751C8.04763 12.8885 7.72956 13.0809 7.46704 13.3375C6.51847 14.2645 6.53137 15.812 7.46929 16.7497L9.13251 18.4131Z" fill="white"/>
<path d="M13.4686 19.379L11.7835 21.0645L9.13248 18.4135L10.8181 16.7282C11.2647 16.2813 11.516 15.6751 11.516 15.043C11.516 14.4109 11.2647 13.8047 10.8181 13.3577C9.66763 12.2077 9.02197 10.648 9.02197 9.0216C9.02197 7.39525 9.66763 5.8355 10.8181 4.68549L12.5032 3L15.1543 5.651L13.4686 7.33625C13.0221 7.78321 12.7708 8.38941 12.7708 9.02149C12.7708 9.65357 13.0221 10.2598 13.4686 10.7067C14.6192 11.8568 15.2648 13.4165 15.2648 15.0429C15.2648 16.6692 14.6192 18.229 13.4686 19.379Z" fill="white"/>
</g>
</svg>
