<svg width="24" height="24" viewBox="0 0 24 24" fill="none" xmlns="http://www.w3.org/2000/svg">
<g clip-path="url(#clip0_5354_284069)">
<path d="M7.77218 16.8931C7.75837 16.895 7.74546 16.9036 7.73417 16.9215C7.68909 16.9933 7.80102 17.668 8.1224 18.0331C8.44378 18.3995 9.1546 18.2709 9.64902 18.3484C10.1433 18.4259 10.3341 18.7989 10.6668 19.2788C11.1791 20.1114 11.9023 20.1316 11.9023 20.1316C11.9023 20.1316 12.6255 20.1114 13.1378 19.2788C13.4705 18.7989 13.6614 18.4259 14.1557 18.3484C14.65 18.2709 15.3611 18.3995 15.6825 18.0331C16.0039 17.668 16.1157 16.9933 16.0706 16.9215C16.0257 16.8498 15.9546 16.9268 15.9012 16.9877C15.6707 17.2512 15.5538 17.4275 15.0273 17.5703C14.501 17.7131 13.9798 17.5773 13.9798 17.5773C13.7523 17.7783 13.566 17.9183 13.1347 17.9329L11.9023 17.9368L10.67 17.9329C10.2386 17.9183 10.0525 17.7783 9.82499 17.5773C9.82499 17.5773 9.30385 17.7131 8.77746 17.5703C8.25107 17.4275 8.1341 17.2512 7.90358 16.9877C7.86364 16.942 7.81373 16.8874 7.77218 16.8931Z" fill="url(#paint0_linear_5354_284069)"/>
<path d="M2.74334 3.83475C1.77719 3.69851 -2.97007 8.71522 6.54603 12.0714C7.52973 12.4188 9.7467 13.0237 10.4866 14.2947C9.96673 14.4113 9.6267 14.4838 9.03699 14.2731C8.17662 13.9658 8.38515 13.0543 8.403 13.0474L3.85531 11.3164C3.85531 11.3164 4.63904 12.2401 5.7388 13.0474C6.83857 13.8549 8.80324 14.6846 9.59806 15.1533C10.393 15.6207 10.6153 16.4043 10.6153 16.4043C10.6153 16.4043 10.3765 16.3589 9.84825 16.3443C9.31984 16.3297 8.82482 15.9852 8.70946 15.6732C8.5941 15.3613 8.66731 14.9171 8.66297 14.9084L7.53457 14.4046C7.53457 14.4046 7.53467 15.1884 7.30596 15.4458C7.07725 15.702 5.99796 14.9855 5.71692 14.8356C5.63302 14.791 5.54852 14.8036 5.56364 14.9045C5.57756 14.996 6.10757 15.7782 6.58747 16.2056C7.06606 16.6318 7.6824 16.4826 7.82811 16.477C8.06549 16.4678 8.56495 16.4783 9.05453 16.7731C9.61934 17.1132 9.69285 17.3159 9.89292 17.5005C10.0357 17.6322 10.268 17.8435 10.666 17.8435L11.9025 17.8541L13.139 17.8435C13.5369 17.8435 13.7694 17.6322 13.9122 17.5005C14.1122 17.3159 14.1858 17.1132 14.7506 16.7731C15.2402 16.4783 15.7396 16.4678 15.977 16.477C16.1227 16.4826 16.7391 16.6318 17.2177 16.2056C17.6976 15.7782 18.2274 14.996 18.2412 14.9045C18.2564 14.8036 18.1721 14.791 18.0882 14.8356C17.8072 14.9855 16.7279 15.702 16.4992 15.4458C16.2705 15.1884 16.2705 14.4046 16.2705 14.4046L15.1422 14.9084C15.1378 14.9171 15.211 15.3613 15.0957 15.6732C14.9803 15.9852 14.485 16.3297 13.9567 16.3443C13.4284 16.3589 13.1898 16.4043 13.1898 16.4043C13.1898 16.4043 13.4121 15.6207 14.207 15.1533C15.0019 14.6846 16.9665 13.8549 18.0663 13.0474C19.1661 12.2401 19.9496 11.3164 19.9496 11.3164L15.4021 13.0474C15.42 13.0543 15.6285 13.9658 14.7681 14.2731C14.1784 14.4838 13.8384 14.4113 13.3186 14.2947C14.0584 13.0237 16.2754 12.4188 17.259 12.0714C27.0822 8.60702 21.7068 3.3731 20.9806 3.86429C20.7669 4.0093 20.9182 4.23035 20.9182 4.23035C20.9182 4.23035 21.6555 5.46019 21.0882 6.58245C20.5208 7.7048 18.1852 8.35058 17.3654 8.26184C16.5493 8.17441 16.2033 7.91636 16.2008 7.91011C15.9134 7.54517 15.5841 6.88416 15.0368 7.26151C14.3931 7.70651 13.6595 7.56564 13.0983 6.95828C12.5359 6.34961 11.9025 6.11293 11.9025 6.11293C11.9025 6.11293 11.269 6.34961 10.7065 6.95828C10.1454 7.56564 9.41171 7.70651 8.76815 7.26151C8.22078 6.88416 7.89184 7.54517 7.60435 7.91011C7.60183 7.91636 7.25584 8.17431 6.43974 8.26184C5.61991 8.35058 3.28435 7.7048 2.71692 6.58245C2.14959 5.46019 2.88694 4.23045 2.88694 4.23045C2.88694 4.23045 3.03799 4.0093 2.82431 3.86429C2.79995 3.84837 2.77224 3.83826 2.74334 3.83475ZM7.68583 9.2408C7.68583 9.2408 8.32959 9.2294 9.42936 9.55683C10.5279 9.88446 11.9024 11.1964 11.9024 11.1964C11.9024 11.1964 13.2771 9.88446 14.3757 9.55693C15.4754 9.22951 16.1191 9.2408 16.1191 9.2408C16.1191 9.2408 14.6568 9.55693 13.4408 10.3168C12.2248 11.0766 11.9024 12.0128 11.9024 12.0128C11.9024 12.0128 11.58 11.0766 10.3639 10.3168C9.14791 9.55693 7.68573 9.2408 7.68573 9.2408H7.68583Z" fill="url(#paint1_linear_5354_284069)"/>
<path d="M2.56478 3.85547C1.32364 4.21678 -2.47562 8.88992 6.54596 12.0716C7.52955 12.419 9.74663 13.0241 10.4864 14.295C9.96666 14.4116 9.62663 14.484 9.03691 14.2734C8.17654 13.966 8.38508 13.0545 8.40283 13.0477L3.85523 11.3166C3.85523 11.3166 4.63886 12.2403 5.73863 13.0477C6.83849 13.8551 8.80317 14.6848 9.59799 15.1535C10.3928 15.6209 10.6153 16.4045 10.6153 16.4045C10.6153 16.4045 10.3765 16.3592 9.84807 16.3445C9.31977 16.3299 8.82475 15.9855 8.70938 15.6735C8.59392 15.3615 8.66723 14.9172 8.6629 14.9085L7.53449 14.4049C7.53449 14.4049 7.53449 15.1885 7.30589 15.4461C7.07708 15.7023 5.99789 14.9857 5.71685 14.8359C5.63295 14.7912 5.54844 14.8038 5.56357 14.9047C5.57738 14.9962 6.1074 15.7784 6.5874 16.2059C7.06599 16.632 7.68222 16.4829 7.82794 16.4773C8.06532 16.468 8.56468 16.4785 9.05416 16.7733C9.61907 17.1135 9.69278 17.3161 9.89285 17.5008C10.0355 17.6325 10.268 17.8437 10.6659 17.8437L11.8933 17.8543H11.9024L13.1297 17.8437C13.5276 17.8437 13.7601 17.6325 13.9028 17.5008C14.1028 17.3161 14.1765 17.1135 14.7415 16.7733C15.2309 16.4785 15.7303 16.468 15.9677 16.4773C16.1134 16.4829 16.7298 16.632 17.2085 16.2059C17.6884 15.7784 18.2182 14.9962 18.232 14.9047C18.2473 14.8038 18.1628 14.7912 18.0789 14.8359C17.7978 14.9857 16.7185 15.7023 16.4898 15.4461C16.2611 15.1885 16.2611 14.4049 16.2611 14.4049L15.1328 14.9085C15.1284 14.9172 15.2017 15.3615 15.0863 15.6735C14.971 15.9855 14.4758 16.3299 13.9475 16.3445C13.4192 16.3592 13.1803 16.4045 13.1803 16.4045C13.1803 16.4045 13.403 15.6209 14.1978 15.1535C14.9927 14.6848 16.9571 13.8551 18.057 13.0477C19.1567 12.2404 19.9404 11.3166 19.9404 11.3166L15.3928 13.0477C15.4106 13.0545 15.6191 13.966 14.7588 14.2734C14.169 14.484 13.8289 14.4116 13.3092 14.295C14.049 13.0241 16.2661 12.419 17.2497 12.0716C26.2712 8.88992 22.4722 4.21678 21.231 3.85547C21.231 3.85547 22.4896 5.49281 22.2973 7.09517C22.1109 8.69752 18.941 10.3117 16.284 10.9644C15.5348 11.1486 12.0219 12.6619 11.8992 14.3701C11.7764 12.6619 8.26085 11.1486 7.5116 10.9643C4.85466 10.3117 1.68505 8.69752 1.49849 7.09517C1.30619 5.49281 2.56478 3.85547 2.56478 3.85547Z" fill="url(#paint2_linear_5354_284069)"/>
<path d="M10.6698 17.9331C10.6055 19.0195 11.9026 19.6773 11.9026 19.6773C11.9026 19.6773 13.1999 19.0195 13.1354 17.9331L11.9026 17.937L10.6698 17.9331Z" fill="url(#paint3_linear_5354_284069)"/>
<path fill-rule="evenodd" clip-rule="evenodd" d="M10.2394 16.0293C10.1782 15.8825 9.84626 15.3023 9.07402 15.0762C8.98932 15.0514 8.85258 15.0355 8.81849 15.2307C8.78854 15.4024 8.84572 15.627 8.9509 15.7632C9.1433 16.012 9.36263 16.1242 9.63207 16.1756C9.74713 16.1975 9.91564 16.233 10.0582 16.2231C10.1127 16.2201 10.166 16.2056 10.2144 16.1805C10.2795 16.1475 10.2689 16.0999 10.2394 16.0293ZM10.0832 14.0513C9.87822 13.8162 9.59265 13.4266 8.84159 13.1447C8.7589 13.1136 8.62014 13.104 8.58606 13.2992C8.55611 13.4709 8.61328 13.6955 8.71856 13.8317C8.91086 14.0805 9.12979 14.1951 9.39964 14.2441C9.52065 14.266 9.61745 14.2918 9.82579 14.2916C9.88397 14.2915 9.94307 14.2811 9.99702 14.2714C10.2034 14.2344 10.1527 14.131 10.0832 14.0513ZM13.5658 16.0293C13.627 15.8825 13.9589 15.3023 14.7312 15.0762C14.816 15.0514 14.9526 15.0355 14.9867 15.2307C15.0166 15.4024 14.9596 15.627 14.8543 15.7632C14.662 16.012 14.4426 16.1242 14.1732 16.1756C14.0581 16.1975 13.8896 16.233 13.7471 16.2231C13.6925 16.2201 13.6393 16.2056 13.5908 16.1805C13.5257 16.1475 13.5364 16.0999 13.5658 16.0293ZM13.7219 14.0513C13.927 13.8162 14.2125 13.4266 14.9635 13.1447C15.0463 13.1136 15.185 13.104 15.2191 13.2992C15.2491 13.4709 15.1919 13.6955 15.0866 13.8317C14.8943 14.0805 14.6754 14.1951 14.4056 14.2441C14.2845 14.266 14.1876 14.2918 13.9794 14.2916C13.9212 14.2915 13.8621 14.2811 13.8081 14.2714C13.6018 14.2344 13.6525 14.131 13.7219 14.0513Z" fill="#AAC0F1"/>
<path d="M2.54414 6.08447C2.54414 6.08447 2.45298 8.60024 6.17359 8.90276C6.62959 8.94158 7.12472 8.88854 7.56216 8.43657C8.22236 7.75429 8.16065 7.57923 8.60183 7.74914C9.04421 7.91916 9.62425 8.1277 10.2929 7.53405C10.9614 6.94172 11.3237 6.80478 11.9023 6.80478C12.481 6.80478 12.8435 6.94172 13.512 7.53415C14.1807 8.1277 14.7606 7.91916 15.2031 7.74914C15.6442 7.57923 15.5826 7.75429 16.2428 8.43657C16.6802 8.88854 17.1753 8.94158 17.6314 8.90276C21.3519 8.60024 21.2606 6.08447 21.2606 6.08447C21.2259 6.25767 21.168 6.42538 21.0883 6.58303C20.521 7.70528 18.1876 8.03926 17.3677 7.95163C16.5517 7.86441 16.5598 7.55563 16.3004 7.12172C16.0291 6.66814 15.5843 6.69425 15.0369 7.0717C14.3933 7.51661 13.6571 7.32925 13.0959 6.72178C12.5335 6.11321 11.9023 6.11311 11.9023 6.11311C11.9023 6.11311 11.2714 6.11321 10.709 6.72188C10.1479 7.32925 9.41167 7.51651 8.76801 7.0717C8.22055 6.69425 7.77574 6.66814 7.50448 7.12172C7.24502 7.55563 7.25309 7.86441 6.43709 7.95163C5.61715 8.03936 3.28401 7.70528 2.71658 6.58303C2.63685 6.42539 2.57885 6.25768 2.54414 6.08447Z" fill="url(#paint4_linear_5354_284069)"/>
</g>
<defs>
<linearGradient id="paint0_linear_5354_284069" x1="7.5824" y1="18.5585" x2="16.2426" y2="18.5585" gradientUnits="userSpaceOnUse">
<stop stop-color="#6686CF"/>
<stop offset="0.497" stop-color="#6686CF"/>
<stop offset="0.499" stop-color="#85A5EB"/>
<stop offset="1" stop-color="#85A5EB"/>
</linearGradient>
<linearGradient id="paint1_linear_5354_284069" x1="21.0795" y1="8.78268" x2="2.71046" y2="8.78268" gradientUnits="userSpaceOnUse">
<stop stop-color="#3558A8"/>
<stop offset="0.499" stop-color="#5075C8"/>
<stop offset="0.5" stop-color="#6686CF"/>
<stop offset="1" stop-color="#3B64BE"/>
</linearGradient>
<linearGradient id="paint2_linear_5354_284069" x1="19.2913" y1="12.8825" x2="4.83863" y2="12.8825" gradientUnits="userSpaceOnUse">
<stop stop-color="#5075C8"/>
<stop offset="0.512" stop-color="#85A5EB"/>
<stop offset="1" stop-color="#6686CF"/>
</linearGradient>
<linearGradient id="paint3_linear_5354_284069" x1="10.4809" y1="18.4119" x2="13.3611" y2="18.4268" gradientUnits="userSpaceOnUse">
<stop stop-color="#7997DB"/>
<stop offset="0.494" stop-color="#85A5EB"/>
<stop offset="1" stop-color="#85A5EB"/>
</linearGradient>
<linearGradient id="paint4_linear_5354_284069" x1="3.11258" y1="6.11311" x2="20.6176" y2="6.11311" gradientUnits="userSpaceOnUse">
<stop stop-color="#2E4C90"/>
<stop offset="0.502" stop-color="#3558A8"/>
<stop offset="1" stop-color="#26407A"/>
</linearGradient>
<clipPath id="clip0_5354_284069">
<rect width="22.4874" height="16.3361" fill="white" transform="translate(0.706055 3.83203)"/>
</clipPath>
</defs>
</svg>
