<svg width="24" height="24" viewBox="0 0 24 24" fill="none" xmlns="http://www.w3.org/2000/svg">
<g id="Clip path group">
<mask id="mask0_3221_2992" style="mask-type:luminance" maskUnits="userSpaceOnUse" x="0" y="0" width="24" height="24">
<g id="clip0_113_3044">
<path id="Vector" d="M24 0H0V24H24V0Z" fill="white"/>
</g>
</mask>
<g mask="url(#mask0_3221_2992)">
<g id="Group">
<path id="Vector_2" d="M12 24C14.3734 24 16.6934 23.2962 18.6668 21.9776C20.6402 20.659 22.1783 18.785 23.0866 16.5922C23.9948 14.3995 24.2324 11.9867 23.7695 9.65895C23.3064 7.33115 22.1635 5.19296 20.4853 3.51472C18.8071 1.83649 16.6688 0.693605 14.3411 0.230582C12.0133 -0.232441 9.60052 0.00519964 7.40779 0.913448C5.21509 1.82171 3.34094 3.35977 2.02237 5.33316C0.703788 7.30655 0 9.62663 0 12C0 15.1826 1.26428 18.2348 3.51472 20.4853C5.76515 22.7357 8.81738 24 12 24Z" fill="#0052FF"/>
<path id="Vector_3" d="M11.9718 20.4507C16.639 20.4507 20.4225 16.6673 20.4225 12C20.4225 7.33283 16.639 3.54932 11.9718 3.54932C7.5441 3.54932 3.91172 6.95447 3.55057 11.2889H16.0908V12.6961H3.54932C3.90326 17.0377 7.53893 20.4507 11.9718 20.4507Z" fill="white"/>
</g>
</g>
</g>
</svg>
