<svg xmlns="http://www.w3.org/2000/svg" width="1337pt" height="1337pt" viewBox="0 0 1337 1337" class="w-6 h-6 mx-auto lg:mx-0 lg:w-12 lg:h-12"><path stroke="#ff4221" stroke-width="8" d="m12 280 178.333 140h187c170 0 170 0 263.334 140L660 589l-85 127.5L470.667 560h-187c-85 0-85 0-178.334-140L12 280zM1325 280l-178.333 140h-187c-170 0-170 0-263.334 140L583.5 729.25l85 127.5L866.333 560h187c85 0 85 0 178.334-140L1325 280z"></path><path stroke="#ff4221" stroke-width="8" d="M295 577h170l280 420H575L435 787c-10-15-25-75-10-90-50 0-50 0-130-120zM1042 577H872L677 869.5 762 997l140-210c10-15 25-75 10-90 50 0 50 0 130-120z"></path></svg>