<svg width="1444" height="1444" viewBox="0 0 1444 1444" fill="none" xmlns="http://www.w3.org/2000/svg">
<g style="mix-blend-mode:plus-darker">
<circle cx="722" cy="722" r="722" fill="#1A202C"/>
<path d="M565.499 727C570.499 1113.5 626.999 1332.5 721.999 1363.5C1147 1196.5 853.498 1078.53 853.498 727C853.498 375.471 935.499 201 721.499 80C663.499 88.5 599.999 206.5 580.999 453C573.142 534.826 564.246 630.136 565.499 727Z" fill="#1A202C"/>
<path d="M257 724C257 1070.28 464.964 1351 721.5 1351C631.501 1325.5 576 1070.28 576 724C576 377.717 631.499 97 721.5 97C464.964 97 257 377.717 257 724Z" stroke="white" stroke-width="9" stroke-dasharray="18 18"/>
<circle cx="19.5" cy="19.5" r="19.5" transform="matrix(-1 0 0 1 405 277)" fill="white"/>
<circle cx="19.5" cy="19.5" r="19.5" transform="matrix(-1 0 0 1 281 706)" fill="white"/>
<circle cx="19.5" cy="19.5" r="19.5" transform="matrix(-1 0 0 1 402 1127)" fill="white"/>
<circle cx="19.5" cy="19.5" r="19.5" transform="matrix(-1 0 0 1 663 1251)" fill="white"/>
<circle cx="19.5" cy="19.5" r="19.5" transform="matrix(-1 0 0 1 605 989)" fill="white"/>
<circle cx="19.5" cy="19.5" r="19.5" transform="matrix(-1 0 0 1 590 707)" fill="white"/>
<circle cx="19.5" cy="19.5" r="19.5" transform="matrix(-1 0 0 1 604 420)" fill="white"/>
<circle cx="19.5" cy="19.5" r="19.5" transform="matrix(-1 0 0 1 662 152)" fill="white"/>
<path d="M386 296L648.5 172L866.5 296L586.5 439M386 296L157 439L266.5 726.5M386 296L586.5 439M386 296L372.5 202.5M266.5 726.5L159.5 1016.5L384 1149M266.5 726.5L590.5 1009M266.5 726.5H576M266.5 726.5L586.5 439M266.5 726.5L81 733.5M384 1149L373 1253.5M384 1149L641.5 1271L866.5 1149L590.5 1009M384 1149L590.5 1009" stroke="white" stroke-width="9" stroke-dasharray="18 18"/>
<path d="M159.5 440H841L847 511L851.5 582.5L853.5 654.5L855 727L853.5 798L851.5 868.5L846.5 941L840.5 1012.5H159.5L127 926.5L101.5 828.5L94 727.5L99.5 630L123 534L159.5 440Z" fill="#1A202C" stroke="white" stroke-width="9"/>
<path d="M125.543 921.065L204.452 816.055C204.693 815.734 205.104 815.588 205.493 815.686L305.656 840.671C305.807 840.709 305.947 840.781 306.065 840.882L390.806 913.464C391.278 913.868 392.001 913.748 392.318 913.213L443.351 826.886C443.631 826.411 444.243 826.253 444.719 826.533L505.094 862.057C505.693 862.409 506.459 862.058 506.585 861.375L524.222 765.284C524.242 765.174 524.28 765.068 524.336 764.971L651.367 541.239C651.79 540.494 652.893 540.591 653.179 541.398L689.963 645.061C690.289 645.981 691.603 645.937 691.868 644.998L743.344 462.213C743.613 461.257 744.959 461.235 745.259 462.181L769.533 538.563C769.676 539.014 770.116 539.302 770.586 539.255L848 531.46" stroke="white" stroke-width="19"/>
<path d="M125 530.935L203.909 635.945C204.15 636.266 204.561 636.412 204.951 636.314L305.113 611.329C305.264 611.291 305.404 611.219 305.522 611.118L390.263 538.536C390.735 538.132 391.458 538.252 391.775 538.787L442.808 625.114C443.088 625.589 443.7 625.747 444.176 625.467L504.551 589.944C505.15 589.591 505.916 589.942 506.042 590.625L523.679 686.716C523.699 686.826 523.737 686.932 523.793 687.029L650.824 910.761C651.247 911.506 652.35 911.409 652.636 910.602L689.42 806.939C689.746 806.019 691.06 806.063 691.325 807.002L742.801 989.787C743.07 990.743 744.416 990.765 744.716 989.819L768.99 913.437C769.133 912.986 769.573 912.698 770.043 912.745L847.457 920.54" stroke="white" stroke-width="19"/>
<path d="M125.543 921.065L204.452 816.055C204.693 815.734 205.104 815.588 205.493 815.686L305.656 840.671C305.807 840.709 305.947 840.781 306.065 840.882L390.806 913.464C391.278 913.868 392.001 913.748 392.318 913.213L443.351 826.886C443.631 826.411 444.243 826.253 444.719 826.533L505.094 862.057C505.693 862.409 506.459 862.058 506.585 861.375L524.222 765.284C524.242 765.174 524.28 765.068 524.336 764.971L651.367 541.239C651.79 540.494 652.893 540.591 653.179 541.398L689.963 645.061C690.289 645.981 691.603 645.937 691.868 644.998L743.344 462.213C743.613 461.257 744.959 461.235 745.259 462.181L769.533 538.563C769.676 539.014 770.116 539.302 770.586 539.255L848 531.46" stroke="#3CB043" stroke-width="19"/>
<path d="M125 530.935L203.909 635.945C204.15 636.266 204.561 636.412 204.951 636.314L305.113 611.329C305.264 611.291 305.404 611.219 305.522 611.118L390.263 538.536C390.735 538.132 391.458 538.252 391.775 538.787L442.808 625.114C443.088 625.589 443.7 625.747 444.176 625.467L504.551 589.944C505.15 589.591 505.916 589.942 506.042 590.625L523.679 686.716C523.699 686.826 523.737 686.932 523.793 687.029L650.824 910.761C651.247 911.506 652.35 911.409 652.636 910.602L689.42 806.939C689.746 806.019 691.06 806.063 691.325 807.002L742.801 989.787C743.07 990.743 744.416 990.765 744.716 989.819L768.99 913.437C769.133 912.986 769.573 912.698 770.043 912.745L847.457 920.54" stroke="#FF0000" stroke-width="19"/>
<path d="M915.001 1148.62L811.501 1179.5L826.001 1107L915.001 1148.62Z" fill="#1A202C"/>
<path d="M825.501 331.5L810.001 253L904.001 302.5L825.501 331.5Z" fill="#1A202C"/>
<path d="M1346.5 716.5C1346.5 1068.03 1063.77 1353 715.001 1353C808.001 1299.5 854.501 1074.53 854.501 723C854.501 371.471 798.001 116.5 714.501 92.0001C1026 77.0003 1346.5 364.971 1346.5 716.5Z" fill="#1A202C"/>
<path d="M989.952 945.033L925.501 813.5L851.001 921L847.501 923M989.952 945.033L996.68 1075.4L1067.83 927.476M989.952 945.033L1067.83 927.476M1093.47 840.491L1067.83 927.476M1067.83 927.476L1111.87 920.18" stroke="white" stroke-width="15"/>
<circle cx="924.244" cy="813.243" r="20.5" transform="rotate(-25 924.244 813.243)" fill="#EF6363"/>
<circle cx="993.72" cy="1077.34" r="20.5" transform="rotate(-25 993.72 1077.34)" fill="#EF6363"/>
<circle cx="1092.81" cy="840.249" r="20.5" transform="rotate(-25 1092.81 840.249)" fill="#EF6363"/>
<circle cx="989.711" cy="945.698" r="29.5" transform="rotate(-25 989.711 945.698)" fill="#EF6363"/>
<circle cx="1067.1" cy="929.47" r="15.5" transform="rotate(-25 1067.1 929.47)" fill="#EF6363"/>
<circle cx="1113.86" cy="920.905" r="15.5" transform="rotate(-25 1113.86 920.905)" fill="#EF6363"/>
<path d="M846.501 532L1054 410.5H1144.5M1144.5 410.5L1157.5 551.5M1144.5 410.5L1232.5 626.5M1144.5 410.5L1068 614M1157.5 551.5L1068 614M1157.5 551.5L1232.5 626.5M1068 614L1232.5 626.5" stroke="white" stroke-width="15"/>
<circle cx="1059.5" cy="410.5" r="20.5" fill="#75B96A"/>
<circle cx="1148.5" cy="411.5" r="29.5" fill="#75B96A"/>
<circle cx="1151.5" cy="549.5" r="20.5" fill="#75B96A"/>
<circle cx="1068.5" cy="617.5" r="29.5" fill="#75B96A"/>
<circle cx="1238.5" cy="632.5" r="20.5" fill="#75B96A"/>
<path d="M769.125 144.065C758.873 125.852 747.5 111.684 734.987 102.847C849.408 112.99 952.661 179.825 1029.34 283.323C1112.76 395.937 1164.5 551.725 1164.5 724C1164.5 896.275 1112.76 1052.06 1029.34 1164.68C950.591 1270.97 843.814 1338.59 725.697 1345.85C741.769 1334.98 756.246 1316.92 769.158 1293.12C787.29 1259.69 802.778 1214.14 815.387 1158.79C840.613 1048.07 854.5 897.334 854.5 724C854.5 550.671 840.614 393.568 815.394 279.671C802.792 222.761 787.301 176.355 769.125 144.065Z" stroke="white" stroke-width="9"/>
<circle cx="1039.5" cy="296.5" r="19.5" fill="white"/>
<circle cx="1163.5" cy="725.5" r="19.5" fill="white"/>
<circle cx="1042.5" cy="1146.5" r="19.5" fill="white"/>
<circle cx="781.501" cy="1270.5" r="19.5" fill="white"/>
<circle cx="839.501" cy="1008.5" r="19.5" fill="white"/>
<circle cx="854.501" cy="726.5" r="19.5" fill="white"/>
<circle cx="840.501" cy="439.5" r="19.5" fill="white"/>
<circle cx="782.501" cy="171.5" r="19.5" fill="white"/>
<path d="M782.501 171.5L1039 296.5M1039 296.5L1295 466L1164.5 726M1039 296.5L840.501 439.5L1164.5 726M1039 296.5L1078.5 205M1164.5 726L1267 1036.5L1043 1147.5M1164.5 726L840.501 1008.5L1043 1147.5M1164.5 726H855.001M1164.5 726L1350 733M1043 1147.5L1058 1253M1043 1147.5L781.001 1272" stroke="white" stroke-width="9"/>
<path fill-rule="evenodd" clip-rule="evenodd" d="M742.855 85.335C858.444 89.053 966.253 123.566 1058.35 180.937C1063.71 175.424 1071.2 172 1079.5 172C1095.79 172 1109 185.208 1109 201.5C1109 205.934 1108.02 210.14 1106.27 213.914C1183.55 272.454 1247.06 348.22 1291.09 435.496C1292.84 435.17 1294.65 435 1296.5 435C1312.79 435 1326 448.208 1326 464.5C1326 473.982 1321.53 482.42 1314.57 487.817C1341.26 555.294 1356.76 628.42 1358.78 704.904C1371.55 708.144 1381 719.718 1381 733.5C1381 747.65 1371.04 759.474 1357.74 762.338C1352.09 852.821 1327.55 938.183 1288.01 1014.53C1294.71 1019.93 1299 1028.22 1299 1037.5C1299 1053.79 1285.79 1067 1269.5 1067C1265.74 1067 1262.15 1066.3 1258.85 1065.02C1213.63 1135.64 1154.86 1196.75 1086.21 1244.68C1086.73 1246.87 1087 1249.15 1087 1251.5C1087 1267.79 1073.79 1281 1057.5 1281C1050.55 1281 1044.16 1278.6 1039.12 1274.58C951.616 1324.9 851.027 1355.04 743.712 1358.64C741.701 1372.97 729.388 1384 714.5 1384C699.376 1384 686.911 1372.62 685.2 1357.95C579.244 1351.92 480.22 1319.99 394.359 1268.39C389.116 1276.58 379.941 1282 369.5 1282C353.208 1282 340 1268.79 340 1252.5C340 1246.26 341.94 1240.46 345.251 1235.7C274.755 1183.91 215.31 1117.95 171.11 1042.03C167.817 1043.3 164.24 1044 160.5 1044C144.208 1044 131 1030.79 131 1014.5C131 1004.33 136.147 995.361 143.978 990.057C110.835 918.709 90.513 840.198 85.9716 757.483C72.3217 754.895 62 742.903 62 728.5C62 714.304 72.0272 702.45 85.3853 699.635C88.2863 615.563 107.479 535.629 139.905 462.893C132.115 457.583 127 448.639 127 438.5C127 422.208 140.208 409 156.5 409C159.884 409 163.135 409.57 166.162 410.619C210.421 331.783 270.966 263.32 343.237 209.789C341.796 206.312 341 202.499 341 198.5C341 182.208 354.208 169 370.5 169C378.577 169 385.897 172.246 391.224 177.506C478.011 124.67 578.426 91.9997 685.961 86.0023C689.279 73.3411 700.798 64 714.5 64C727.96 64 739.314 73.0142 742.855 85.335ZM714.5 123C727.714 123 738.898 114.312 742.653 102.338C855.494 106.031 960.708 139.877 1050.5 196.079C1050.17 197.837 1050 199.648 1050 201.5C1050 217.792 1063.21 231 1079.5 231C1085.15 231 1090.44 229.409 1094.93 226.651C1170.68 283.777 1232.92 357.88 1275.98 443.305C1270.44 448.667 1267 456.182 1267 464.5C1267 480.792 1280.21 494 1296.5 494C1297.24 494 1297.97 493.973 1298.7 493.919C1324.75 559.718 1339.86 631.037 1341.79 705.636C1330.27 709.651 1322 720.61 1322 733.5C1322 746.016 1329.79 756.711 1340.79 760.997C1335.29 849.717 1311.12 933.383 1272.18 1008.12C1271.29 1008.04 1270.4 1008 1269.5 1008C1253.21 1008 1240 1021.21 1240 1037.5C1240 1043.83 1242 1049.7 1245.39 1054.5C1201.51 1123.43 1144.4 1183.09 1077.63 1229.93C1072.36 1225.01 1065.28 1222 1057.5 1222C1041.21 1222 1028 1235.21 1028 1251.5C1028 1254.65 1028.5 1257.69 1029.41 1260.54C943.979 1309.42 845.799 1338.54 741.091 1341.71C736.327 1331.82 726.211 1325 714.5 1325C703.034 1325 693.096 1331.54 688.214 1341.1C582.617 1335.42 484.04 1303.33 398.976 1251.31C398.35 1235.57 385.393 1223 369.5 1223C365.885 1223 362.422 1223.65 359.221 1224.84C288.261 1173.56 228.587 1107.62 184.636 1031.47C188.016 1026.67 190 1020.82 190 1014.5C190 998.208 176.792 985 160.5 985L160.383 985C127.435 914.764 107.275 837.337 102.901 755.716C113.533 751.257 121 740.751 121 728.5C121 716.038 113.272 705.38 102.347 701.058C105.096 618.229 124.092 539.515 156.25 467.999C156.333 468 156.416 468 156.5 468C172.792 468 186 454.792 186 438.5C186 431.807 183.771 425.634 180.015 420.684C223.312 342.97 282.839 275.537 354.012 222.966C358.719 226.144 364.393 228 370.5 228C386.792 228 400 214.792 400 198.5C400 196.425 399.786 194.401 399.378 192.447C483.906 140.84 581.755 108.902 686.562 102.996C690.515 114.63 701.53 123 714.5 123Z" fill="white"/>
</g>
</svg>
